<?xml version="1.0" encoding="utf-8"?>
<!-- Generator: Adobe Illustrator 16.0.0, SVG Export Plug-In . SVG Version: 6.00 Build 0)  -->
<!DOCTYPE svg PUBLIC "-//W3C//DTD SVG 1.1//EN" "http://www.w3.org/Graphics/SVG/1.1/DTD/svg11.dtd">
<svg version="1.1" id="Layer_9" xmlns="http://www.w3.org/2000/svg" xmlns:xlink="http://www.w3.org/1999/xlink" x="0px" y="0px"
	 width="100px" height="100px" viewBox="0 0 100 100" enable-background="new 0 0 100 100" xml:space="preserve">
<path d="M58.718,48.73l-0.849-1.44c-3.7,3.159-10.074,7.553-17.582,11.98c-2.714,1.601-5.353,3.073-7.832,4.383
	c0.437,1.774-1.156,2.231-2.81,3.207L10.627,78.076c-2.02,1.191-3.761,1.982-4.952-0.038l-2.013-3.413
	c-1.191-2.02,0.343-3.16,2.363-4.352l19.019-11.216c1.655-0.976,2.826-2.147,4.166-0.906c2.346-1.536,4.911-3.131,7.625-4.732
	c7.508-4.428,14.438-7.88,18.993-9.589l-0.85-1.44c-0.715-1.212-0.312-2.774,0.9-3.489c1.212-0.715,2.774-0.312,3.489,0.9
	l3.739,6.339c0.715,1.212,0.312,2.774-0.9,3.489S59.433,49.942,58.718,48.73z M51.252,33.426c1.197,2.028,3.57,2.908,5.739,2.327
	l9.155,15.524c-1.558,1.618-1.937,4.12-0.74,6.149l0.347,0.589c1.438,2.439,4.583,3.25,7.023,1.813l10.309-6.08
	c2.439-1.438,3.251-4.583,1.812-7.022l-0.348-0.588c-1.196-2.029-3.569-2.91-5.739-2.329l-9.155-15.524
	c1.559-1.618,1.937-4.12,0.74-6.149l-0.347-0.589c-1.439-2.439-4.583-3.251-7.023-1.813l-10.309,6.08
	c-2.439,1.438-3.251,4.583-1.813,7.022L51.252,33.426z M92.509,71.353h-1.972c-0.92-1.646-2.677-2.76-4.696-2.76H70.304
	c-2.02,0-3.776,1.114-4.696,2.76h-1.123c-2.345,0-4.246,1.901-4.246,4.246v1.132c0,2.345,1.901,4.246,4.246,4.246h28.024
	c2.345,0,4.246-1.901,4.246-4.246v-1.132C96.755,73.254,94.854,71.353,92.509,71.353z"/>
</svg>
